<svg width="12" height="20" viewBox="0 0 12 20" fill="none" xmlns="http://www.w3.org/2000/svg">
<g id="Property 1=arrow right">
<path id="Vector" d="M11.3266 9.97094C11.3275 10.1455 11.2934 10.3185 11.2265 10.4797C11.1595 10.641 11.0611 10.7872 10.9369 10.9099L2.07856 19.7682C1.82008 19.9449 1.50751 20.0246 1.19599 19.9933C0.884458 19.9621 0.593984 19.8218 0.375794 19.5972C0.157603 19.3727 0.0257133 19.0783 0.00338485 18.766C-0.0189436 18.4537 0.0697244 18.1436 0.25375 17.8903L8.11992 9.97094L0.25375 2.05161C0.0918362 1.80188 0.0184522 1.50503 0.0453593 1.20862C0.0722664 0.912214 0.197907 0.633427 0.402143 0.416937C0.606379 0.200447 0.877383 0.0587921 1.17172 0.014679C1.46606 -0.0294342 1.76668 0.0265446 2.02541 0.173649L10.8837 9.03196C11.0176 9.15007 11.1259 9.29427 11.2021 9.45574C11.2782 9.6172 11.3206 9.79251 11.3266 9.97094Z" fill="#0A0303"/>
</g>
</svg>
