<svg width="12" height="20" viewBox="0 0 12 20" fill="none" xmlns="http://www.w3.org/2000/svg">
<path d="M0.673368 10.4709C0.672544 10.6455 0.706595 10.8185 0.773526 10.9797C0.840458 11.141 0.938919 11.2872 1.06313 11.4099L9.92144 20.2682C10.1799 20.4449 10.4925 20.5246 10.804 20.4933C11.1155 20.4621 11.406 20.3218 11.6242 20.0972C11.8424 19.8727 11.9743 19.5783 11.9966 19.266C12.0189 18.9537 11.9303 18.6436 11.7463 18.3903L3.88008 10.4709L11.7463 2.55161C11.9082 2.30188 11.9815 2.00503 11.9546 1.70862C11.9277 1.41221 11.8021 1.13343 11.5979 0.916937C11.3936 0.700447 11.1226 0.558792 10.8283 0.514679C10.5339 0.470566 10.2333 0.526545 9.97459 0.673649L1.11628 9.53196C0.982415 9.65007 0.874081 9.79427 0.797919 9.95574C0.721758 10.1172 0.679374 10.2925 0.673368 10.4709Z" fill="#0A0303"/>
</svg>
