<svg width="34" height="34" viewBox="0 0 34 34" fill="none" xmlns="http://www.w3.org/2000/svg">
<g id="Property 1=check">
<path id="Vector" d="M16.9999 29.5C10.6079 29.5 4.5 23.3919 4.5 16.9999C4.5 10.6079 10.6079 4.5 16.9999 4.5C23.3919 4.5 29.5 10.6079 29.5 16.9999C29.5 23.3919 23.3919 29.5 16.9999 29.5ZM16.9999 6.79994C11.3559 6.79994 6.79994 11.3559 6.79994 16.9999C6.79994 22.6439 11.3559 27.1999 16.9999 27.1999C22.6439 27.1999 27.1999 22.6439 27.1999 16.9999C27.1999 11.3559 22.6439 6.79994 16.9999 6.79994Z" fill="black"/>
<path id="Vector_2" d="M23.093 13.1649L23.0927 13.1652C23.0928 13.1651 23.0929 13.165 23.093 13.1649Z" fill="black" stroke="black" stroke-width="2"/>
</g>
</svg>
