<svg width="34" height="34" viewBox="0 0 34 34" fill="none" xmlns="http://www.w3.org/2000/svg">
<g id="Property 1=error">
<path id="Vector" d="M15.5833 22.6667C15.5833 21.8843 16.2175 21.25 16.9999 21.25C17.7823 21.25 18.4166 21.8843 18.4166 22.6667C18.4166 23.4491 17.7823 24.0834 16.9999 24.0834C16.2175 24.0834 15.5833 23.4491 15.5833 22.6667ZM15.5833 11.3334C15.5833 10.551 16.2175 9.91671 16.9999 9.91671C17.7823 9.91671 18.4166 10.551 18.4166 11.3334V17C18.4166 17.7824 17.7823 18.4167 16.9999 18.4167C16.2175 18.4167 15.5833 17.7824 15.5833 17V11.3334ZM16.9999 2.83337C9.16575 2.83337 2.83325 9.20837 2.83325 17C2.83325 20.7573 4.32581 24.3606 6.98257 27.0174C8.29807 28.3329 9.85979 29.3764 11.5786 30.0883C13.2973 30.8003 15.1395 31.1667 16.9999 31.1667C20.7572 31.1667 24.3605 29.6742 27.0173 27.0174C29.674 24.3606 31.1666 20.7573 31.1666 17C31.1666 15.1396 30.8002 13.2975 30.0882 11.5787C29.3763 9.85991 28.3328 8.29819 27.0173 6.98269C25.7018 5.6672 24.14 4.62369 22.4213 3.91175C20.7025 3.19981 18.8603 2.83337 16.9999 2.83337ZM16.9999 28.3334C13.9941 28.3334 11.1115 27.1393 8.98604 25.0139C6.86063 22.8885 5.66659 20.0058 5.66659 17C5.66659 13.9943 6.86063 11.1116 8.98604 8.98616C11.1115 6.86075 13.9941 5.66671 16.9999 5.66671C20.0057 5.66671 22.8884 6.86075 25.0138 8.98616C27.1392 11.1116 28.3333 13.9943 28.3333 17C28.3333 20.0058 27.1392 22.8885 25.0138 25.0139C22.8884 27.1393 20.0057 28.3334 16.9999 28.3334Z" fill="black"/>
</g>
</svg>
