<svg width="20" height="20" viewBox="0 0 20 20" fill="none" xmlns="http://www.w3.org/2000/svg">
<path fill-rule="evenodd" clip-rule="evenodd" d="M9.99998 0C15.522 0 20 4.47797 20 9.99998C20 15.522 15.522 20 9.99998 20C4.47797 20 0 15.522 0 9.99998C0 4.47797 4.47797 0 9.99998 0ZM9.99998 2.00002C5.58905 2.00002 2.00002 5.589 2.00002 9.99998C2.00002 14.411 5.589 18 9.99998 18C14.411 18 18 14.411 18 9.99998C18 5.589 14.411 2.00002 9.99998 2.00002ZM12.293 6.29302L13.707 7.707L11.414 9.99998L13.707 12.293L12.293 13.707L9.99998 11.414L7.707 13.707L6.29302 12.293L8.586 9.99998L6.29302 7.707L7.707 6.29302L9.99998 8.586L12.293 6.29302Z" fill="black"/>
</svg>
