<svg width="25" height="24" viewBox="0 0 25 24" fill="none" xmlns="http://www.w3.org/2000/svg">
<g id="Property 1=fire">
<path id="Vector" d="M12.3267 22C16.4442 22 19.8267 18.737 19.8267 14.549C19.8267 13.521 19.7742 12.419 19.2042 10.706C18.6342 8.993 18.5197 8.772 17.9172 7.714C17.6597 9.8725 16.2822 10.7725 15.9322 11.0415C15.9322 10.7615 15.0992 7.668 13.8357 5.8165C12.5952 4 10.9082 2.8085 9.91916 2C9.91916 3.535 9.48766 5.817 8.86916 6.98C8.25116 8.1425 8.13516 8.185 7.36266 9.05C6.59016 9.915 6.23616 10.1825 5.59016 11.2325C4.94416 12.2825 4.82666 13.681 4.82666 14.709C4.82666 18.897 8.20916 22 12.3267 22Z" stroke="black" stroke-width="2" stroke-linejoin="round"/>
</g>
</svg>
