<svg width="27" height="27" viewBox="0 0 27 27" fill="none" xmlns="http://www.w3.org/2000/svg">
<g id="Property 1=food">
<path id="Vector" d="M16.9805 21.9375C16.9805 23.8017 15.8915 25.3125 14.0273 25.3125H7.06641C5.20225 25.3125 4.11328 23.8017 4.11328 21.9375M17.7188 17.7188C18.6506 17.7188 19.4062 18.6632 19.4062 19.8281C19.4062 20.993 18.6506 21.9375 17.7188 21.9375H3.375C2.44318 21.9375 1.6875 20.993 1.6875 19.8281C1.6875 18.6632 2.44318 17.7188 3.375 17.7188" stroke="black" stroke-width="2" stroke-miterlimit="10" stroke-linecap="round"/>
<path id="Vector_2" d="M3.375 14.5547V14.5431C3.375 11.6427 5.74805 10.125 8.64844 10.125H12.4453C15.3457 10.125 17.7188 11.6543 17.7188 14.5547V14.5431M12.709 5.90625L13.1013 9.27967M18.1406 17.7188H9.4558C9.34406 17.7188 9.23691 17.7632 9.15785 17.8421L7.74299 19.257C7.7234 19.2766 7.70013 19.2922 7.67453 19.3028C7.64892 19.3134 7.62147 19.3189 7.59375 19.3189C7.56603 19.3189 7.53858 19.3134 7.51297 19.3028C7.48737 19.2922 7.4641 19.2766 7.44451 19.257L6.02965 17.8421C5.95059 17.7632 5.84344 17.7188 5.7317 17.7188H2.95312C2.61746 17.7188 2.29554 17.5854 2.05819 17.3481C1.82084 17.1107 1.6875 16.7888 1.6875 16.4531C1.6875 16.1175 1.82084 15.7955 2.05819 15.5582C2.29554 15.3208 2.61746 15.1875 2.95312 15.1875H18.1406C18.4763 15.1875 18.7982 15.3208 19.0356 15.5582C19.2729 15.7955 19.4062 16.1175 19.4062 16.4531C19.4062 16.7888 19.2729 17.1107 19.0356 17.3481C18.7982 17.5854 18.4763 17.7188 18.1406 17.7188Z" stroke="black" stroke-width="2" stroke-miterlimit="10" stroke-linecap="round"/>
<path id="Vector_3" d="M13.5 25.3125H20.8464C21.2722 25.3125 21.6821 25.1516 21.9942 24.862C22.3063 24.5724 22.4974 24.1756 22.5292 23.751L24.416 5.90625" stroke="black" stroke-width="2" stroke-miterlimit="10" stroke-linecap="round"/>
<path id="Vector_4" d="M19.4062 5.90625L20.25 2.53125L22.7285 1.6875" stroke="black" stroke-width="2.125" stroke-linecap="round" stroke-linejoin="round"/>
<path id="Vector_5" d="M11.8125 5.90625H25.3125" stroke="black" stroke-width="2.125" stroke-miterlimit="10" stroke-linecap="round"/>
</g>
</svg>
