<svg width="16" height="18" viewBox="0 0 16 18" fill="none" xmlns="http://www.w3.org/2000/svg">
<g id="Group">
<path id="Vector" d="M8 10V10.01M6 13V13.01M10 13V13.01M3.5 5H12.5L12.219 2.752C12.1585 2.26821 11.9234 1.82316 11.5579 1.50052C11.1924 1.17789 10.7216 0.999894 10.234 1H5.766C5.27827 0.99965 4.80722 1.17754 4.44147 1.50019C4.07572 1.82285 3.84048 2.26803 3.78 2.752L3.5 5Z" stroke="black" stroke-width="2" stroke-linecap="round" stroke-linejoin="round"/>
<path id="Vector_2" d="M3.50009 5L1.88809 14.671C1.8403 14.9575 1.85551 15.2511 1.93265 15.5311C2.0098 15.8112 2.14704 16.0711 2.33481 16.2928C2.52259 16.5144 2.7564 16.6925 3.01998 16.8146C3.28356 16.9368 3.57058 17 3.86109 17H12.1391C12.4296 17 12.7166 16.9368 12.9802 16.8146C13.2438 16.6925 13.4776 16.5144 13.6654 16.2928C13.8531 16.0711 13.9904 15.8112 14.0675 15.5311C14.1447 15.2511 14.1599 14.9575 14.1121 14.671L12.5001 5" stroke="black" stroke-width="2" stroke-linecap="round" stroke-linejoin="round"/>
</g>
</svg>
