<svg width="30" height="18" viewBox="0 0 30 18" fill="none" xmlns="http://www.w3.org/2000/svg">
<g id="Property 1=meat">
<path id="Vector 1" d="M2.02097 8.34039C1.68068 5.05899 5.56571 4.54248 7.55077 4.6944C8.03279 4.7954 8.79185 4.93875 9.67761 4.97668M2.02097 8.34039V13.8097C2.30455 14.8732 5.25377 17 14.782 17C24.3103 17 27.5431 13.6578 27.9685 11.9867V6.51739M2.02097 8.34039C2.25187 9.70102 2.38876 11.8674 8.40151 12.6253M27.9685 6.51739C27.6282 3.9652 25.2745 2.56798 24.1401 1.96031C23.0058 1.3527 21.6158 0.835747 19.8865 1.04888M27.9685 6.51739C28.1765 8.07734 27.3674 9.63729 25.1932 10.8243M8.40151 12.6253C9.77344 12.7983 11.4513 12.8979 13.5059 12.8979C14.5637 12.8979 15.5554 12.8687 16.4835 12.8131M8.40151 12.6253C9.11045 12.2605 11.0388 10.8018 13.0806 7.885M13.0806 7.885C11.9462 7.92104 9.67761 7.38983 9.67761 4.97668M13.0806 7.885C13.3371 7.885 13.6225 7.88948 13.9313 7.89924M25.1932 10.8243L24.9909 10.6195C23.2806 9.2452 20.1378 8.51842 17.3342 8.16798M25.1932 10.8243C23.3463 11.8326 20.5142 12.5718 16.4835 12.8131M9.67761 4.97668C11.2604 5.04447 13.2479 4.77566 14.782 3.32714C15.0518 3.07245 16.1872 2.16646 16.4835 1.96023M13.9313 7.89924C14.782 9.20499 16.4835 12.0158 16.4835 12.8131M13.9313 7.89924C14.8915 7.9296 16.0789 8.01106 17.3342 8.16798M17.3342 8.16798C17.2232 7.37998 16.9961 6.89098 16.7514 6.51739M16.4835 1.96023C15.2264 5.32732 16.0591 5.4604 16.7514 6.51739M16.4835 1.96023C17.4734 1.27117 18.9065 1.16965 19.8865 1.04888M16.7514 6.51739C20.4021 5.49868 17.3342 2.87188 19.8865 1.04888" stroke="black" stroke-width="2"/>
</g>
</svg>
