<svg width="34" height="34" viewBox="0 0 34 34" fill="none" xmlns="http://www.w3.org/2000/svg">
<g id="Property 1=motorcycle">
<path id="Vector" fill-rule="evenodd" clip-rule="evenodd" d="M21.8895 12.33C21.4442 12.0559 21.0833 11.6638 20.847 11.1972C20.6108 10.7306 20.5082 10.2078 20.5508 9.6865L17.7083 9.18712L17.9533 7.79171L21.0261 8.33146C21.2856 7.94708 21.6354 7.63227 22.0449 7.41466C22.4545 7.19705 22.9112 7.0833 23.3749 7.08337H25.7726C26.0135 7.08337 26.2083 7.27817 26.2083 7.519V12.3144C26.2083 12.5552 26.0128 12.75 25.7726 12.75H25.4999V18.5938C25.6534 18.5499 25.8095 18.5137 25.9681 18.4854C27.0284 18.2985 28.1207 18.4891 29.0551 19.0241C29.9894 19.5591 30.7067 20.4046 31.0823 21.4137C31.304 22.0087 31.0681 22.552 30.6615 22.8757C30.6965 23.8161 30.39 24.7374 29.7986 25.4694C29.2072 26.2014 28.3709 26.6946 27.4441 26.858C26.5174 27.0213 25.5628 26.8438 24.7568 26.3581C23.9507 25.8725 23.3477 25.1115 23.059 24.2158C22.6758 24.0869 22.3429 23.7979 22.2168 23.375H14.1517C14.0648 24.3441 13.6184 25.2456 12.9003 25.9021C12.1822 26.5587 11.2444 26.9228 10.2715 26.9228C9.29848 26.9228 8.36072 26.5587 7.64264 25.9021C6.92456 25.2456 6.47815 24.3441 6.39121 23.375H3.16617C3.12365 23.3763 3.08132 23.3691 3.04157 23.354C3.00183 23.3388 2.96546 23.316 2.93454 23.2868C2.90362 23.2576 2.87876 23.2226 2.86138 23.1837C2.844 23.1449 2.83444 23.1031 2.83325 23.0605C2.83325 20.5559 4.26904 18.3692 6.40325 17.1984C6.38446 17.1339 6.37492 17.0672 6.37492 17V14.875C6.37492 14.3115 6.5988 13.771 6.99732 13.3724C7.39583 12.9739 7.93633 12.75 8.49992 12.75H14.8749C15.4385 12.75 15.979 12.9739 16.3775 13.3724C16.776 13.771 16.9999 14.3115 16.9999 14.875V17C16.9999 17.1879 16.9253 17.3681 16.7925 17.5009C16.6596 17.6337 16.4794 17.7084 16.2916 17.7084V18.4167H20.7116L21.8895 12.33ZM21.9583 9.91671C21.9583 9.54098 22.1075 9.18065 22.3732 8.91497C22.6389 8.6493 22.9992 8.50004 23.3749 8.50004H24.7916V11.3334H23.3749C22.9992 11.3334 22.6389 11.1841 22.3732 10.9184C22.1075 10.6528 21.9583 10.2924 21.9583 9.91671ZM20.4368 19.8334H16.2916V21.9584H20.0259L20.4368 19.8334ZM21.4688 21.9584H22.2876C22.5436 20.8781 23.1813 19.9267 24.0833 19.2795V12.75H23.251L21.4688 21.9584ZM24.55 24.1301C24.789 24.6079 25.1759 24.9957 25.6531 25.2358C26.1303 25.476 26.6723 25.5556 27.1984 25.4629C27.7245 25.3701 28.2066 25.11 28.5729 24.7212C28.9392 24.3323 29.1702 23.8356 29.2314 23.3049L24.55 24.1301ZM7.79158 14.875C7.79158 14.6872 7.86621 14.507 7.99905 14.3742C8.13189 14.2413 8.31206 14.1667 8.49992 14.1667H14.8749C15.0628 14.1667 15.2429 14.2413 15.3758 14.3742C15.5086 14.507 15.5833 14.6872 15.5833 14.875V16.2917H7.79158V14.875ZM4.37317 21.9584C4.9115 19.5748 7.16329 17.7084 9.9775 17.7084H14.8749V21.9357C14.8515 21.9508 14.8242 21.9587 14.7963 21.9584H4.37317ZM12.48 23.3913C12.5693 23.3942 12.6496 23.3972 12.7209 23.4005C12.6305 23.9856 12.3339 24.5189 11.8845 24.9042C11.4351 25.2895 10.8627 25.5013 10.2708 25.5013C9.67881 25.5013 9.1064 25.2895 8.65702 24.9042C8.20765 24.5189 7.91097 23.9856 7.82063 23.4005C7.89193 23.3968 7.97221 23.3937 8.06146 23.3913C8.58279 23.375 9.28617 23.375 10.2708 23.375C11.2553 23.375 11.9587 23.375 12.4808 23.3913M28.5968 20.4092C28.1301 20.0824 27.5843 19.8866 27.0163 19.8423C26.4483 19.7979 25.8788 19.9066 25.367 20.1571C24.8553 20.4075 24.42 20.7906 24.1065 21.2663C23.793 21.7421 23.6128 22.2932 23.5846 22.8622L29.706 21.7827C29.4731 21.2293 29.0885 20.7537 28.5968 20.4092Z" fill="black"/>
</g>
</svg>
