<svg width="15" height="16" viewBox="0 0 15 16" fill="none" xmlns="http://www.w3.org/2000/svg">
<path d="M0.477539 8.00684C0.477539 8.30566 0.582682 8.56022 0.792969 8.77051C1.00326 8.97526 1.25505 9.07764 1.54834 9.07764H6.4375V13.9668C6.4375 14.2546 6.53988 14.5036 6.74463 14.7139C6.94938 14.9242 7.20117 15.0293 7.5 15.0293C7.79329 15.0293 8.04508 14.9242 8.25537 14.7139C8.46566 14.5036 8.5708 14.2546 8.5708 13.9668V9.07764H13.46C13.7477 9.07764 13.9967 8.97526 14.207 8.77051C14.4173 8.56022 14.5225 8.30566 14.5225 8.00684C14.5225 7.71354 14.4173 7.46175 14.207 7.25146C13.9967 7.04118 13.7477 6.93604 13.46 6.93604H8.5708V2.05518C8.5708 1.76188 8.46566 1.51009 8.25537 1.2998C8.04508 1.08952 7.79329 0.984375 7.5 0.984375C7.20117 0.984375 6.94938 1.08952 6.74463 1.2998C6.53988 1.51009 6.4375 1.76188 6.4375 2.05518V6.93604H1.54834C1.25505 6.93604 1.00326 7.04118 0.792969 7.25146C0.582682 7.46175 0.477539 7.71354 0.477539 8.00684Z" fill="white"/>
</svg>
