<svg class="svg-icon" style="width: 1.078125em;height: 1em;vertical-align: middle;fill: currentColor;overflow: hidden;" viewBox="0 0 1104 1024" version="1.1" xmlns="http://www.w3.org/2000/svg"><path d="M651.182987 996.082264A94.746922 94.746922 0 0 0 718.605285 1023.999731c25.465256 0 49.421461-9.916629 67.422298-27.917467a95.393659 95.393659 0 0 0 27.836624-68.823561h1.482105c25.465256 0 49.421461-9.916629 67.422298-27.917466a95.447554 95.447554 0 0 0 0-134.844596 96.821869 96.821869 0 0 0-99.705237-22.312415l-73.754928-73.727981c5.012209-44.759567-5.389472-91.351555-29.776834-133.389438 5.066104-99.866921-37.861043-205.150262-116.008391-283.270663-74.105244-74.132191-171.493008-116.62818-267.183087-116.62818-76.476611 0-146.324172 27.67494-196.554054 77.931769C42.361252 270.52456 15.171364 350.908539 23.174731 439.403674c7.86863 86.662714 48.828619 171.007955 115.280812 237.433201 78.147348 78.174295 182.514478 120.91281 283.216767 116.00839 41.606726 24.144836 88.522082 34.815991 133.443333 29.803782l73.754928 73.754928a95.69008 95.69008 0 0 0 22.285468 99.678289z m-208.356998-253.46688a27.055151 27.055151 0 0 0-16.518733-4.095999c-87.498082 7.006314-180.304795-30.342729-249.721197-99.786079-57.559564-57.532616-92.968397-130.074913-99.705237-204.207105-6.575156-72.272823 15.090522-137.377648 61.008826-183.295951 40.097674-40.097674 96.363764-62.167563 158.450485-62.167563 81.515768 0 164.998693 36.756201 229.052571 100.837026 69.44335 69.416403 106.765446 162.78901 99.813026 249.748145-0.431158 5.766735 0.970105 11.560418 4.095999 16.491785 21.153679 33.60336 29.884624 72.326718 25.599993 107.897235l-104.205446 104.205446c-35.516622 4.28463-74.23998-4.365473-107.870287-25.62694z m159.097221 50.607144l77.985664-77.958716 78.659347 78.6324c9.081261 9.081261 23.309468 10.455576 33.926728 3.422315a42.415147 42.415147 0 0 1 52.170092 5.281683c16.141469 16.168417 16.141469 42.495989 0 58.637458a42.415147 42.415147 0 0 1-52.170092 5.30863 27.001256 27.001256 0 0 0-33.953675 3.395368l-1.913263 1.967157a26.947361 26.947361 0 0 0-3.422314 33.899781c10.832839 16.357048 8.596208 38.265253-5.281683 52.170091-15.683364 15.62947-42.954094 15.62947-58.637459 0a41.525884 41.525884 0 0 1-5.281682-52.116197 26.893467 26.893467 0 0 0-3.395368-33.953675l-78.686295-78.686295z m391.275687-394.186001c38.076622-10.428629 85.369241-23.39031 103.316183-86.393241 15.952838-56.104406 4.311578-120.91281 3.071999-127.595756 1.724631-24.522099-5.119999-50.607145-20.479995-74.078296-24.791572-38.049674-81.246294-87.120819-209.380997-104.933025-138.239964-19.348205-315.284128 15.62947-430.564939 84.749451a26.947361 26.947361 0 0 0 27.728834 46.214725c105.687551-63.353246 268.287929-95.258922 395.398633-77.608401 113.77176 15.818101 156.429433 57.559564 171.708587 81.003769 10.967576 16.815153 14.874943 34.896833 10.698102 49.583144-9.242945 32.417676-26.839572 38.507779-65.697667 49.151987-56.912827 15.602522-134.898491 36.97178-160.067326 201.027316-8.138103 52.843776-34.492623 95.151133-76.207138 122.233231a26.974309 26.974309 0 0 0 29.345676 45.217672 222.612152 222.612152 0 0 0 41.148621-34.600412c-8.623156 30.154097-23.605889 56.131354-45.325462 77.150296a26.947361 26.947361 0 0 0 37.456833 38.750305c36.217254-35.03157 58.691353-79.683347 66.829456-132.634912 19.9141-129.509019 69.03914-142.982699 121.047547-157.237853z m-109.352393-3.799578c23.983152-80.410926 65.643772-92.133028 109.37934-104.124605 18.135574-4.958314 38.319148-10.698102 56.481669-21.962099-0.943158 9.70105-2.371368 19.482942-5.012209 28.752834-9.242945 32.417676-26.839572 38.480832-65.697667 49.151988-29.507361 8.084208-64.619772 17.919995-95.151133 48.181882z" fill="#231F1F" /></svg>