<svg width="21" height="24" viewBox="0 0 21 24" fill="none" xmlns="http://www.w3.org/2000/svg">
<path d="M3.96478 0C2.09087 0.000365521 0.566406 1.52508 0.566406 3.39886V20.6013C0.566406 22.4752 2.09087 23.9999 3.9649 24.0001H20.0064C20.427 24.0001 20.7679 23.6592 20.7679 23.2386V20.6013V17.9639V6.03622V0.761502C20.7679 0.340909 20.427 0 20.0064 0H3.96478ZM3.9649 1.523H19.2449V6.03622V17.2023H3.96478C3.27187 17.2024 2.62721 17.4114 2.08941 17.7687V3.39886C2.08941 2.36468 2.93084 1.52313 3.9649 1.523ZM19.2449 22.477H3.96502C2.93084 22.4769 2.08941 21.6353 2.08941 20.6011C2.08941 19.567 2.93072 18.7254 3.9649 18.7253H19.2449V19.8396H7.25459C6.834 19.8396 6.49309 20.1805 6.49309 20.6011C6.49309 21.0217 6.834 21.3626 7.25459 21.3626H19.2449V22.477Z" fill="#F7F7F7"/>
<path d="M7.62154 10.6855V13.5687C7.62154 13.9893 7.96245 14.3302 8.38304 14.3302H12.9504C13.3709 14.3302 13.7119 13.9893 13.7119 13.5687V10.6856C14.718 10.2817 15.4154 9.29506 15.4154 8.1673C15.4154 6.71314 14.2656 5.52263 12.8275 5.45708C12.3206 4.78623 11.5307 4.38599 10.6668 4.38599C9.80261 4.38599 9.01284 4.78623 8.50598 5.45708C7.06778 5.52263 5.91797 6.71326 5.91797 8.1673C5.91797 9.29518 6.61551 10.2817 7.62154 10.6855ZM8.63111 6.97729C8.68874 6.97729 8.74735 6.98155 8.80571 6.99008C9.13297 7.03845 9.45305 6.86995 9.59913 6.57363C9.80151 6.16376 10.2108 5.90899 10.6671 5.90899C11.1232 5.90899 11.5325 6.16376 11.7351 6.57387C11.8813 6.87019 12.2029 7.03821 12.5287 6.99008C12.5867 6.98155 12.6451 6.97729 12.7028 6.97729C13.359 6.97729 13.8929 7.51119 13.8929 8.16742C13.8929 8.76505 13.4466 9.2724 12.8548 9.34745C12.4744 9.3957 12.1892 9.71943 12.1892 10.1029V12.8072H9.14455V10.1532C9.14455 10.1523 9.14467 10.1514 9.14467 10.1506C9.16989 9.7494 8.87881 9.39765 8.48003 9.34733C7.88764 9.27264 7.44097 8.76542 7.44097 8.1673C7.44097 7.51107 7.97488 6.97729 8.63111 6.97729Z" fill="#F7F7F7"/>
</svg>
