<svg width="24" height="25" viewBox="0 0 24 25" fill="none" xmlns="http://www.w3.org/2000/svg">
<g clip-path="url(#clip0_2303_1561)">
<path d="M3.18311 17.7765C5.97388 17.0033 8.54826 16.9496 10.6105 18.5999M3.18311 16.0748C5.97388 15.3016 8.54826 15.2473 10.6105 16.8976M3.18311 14.4182C5.97388 13.645 8.54826 13.5908 10.6105 15.241M3.18311 12.6388C5.97388 11.8656 8.54826 11.8113 10.6105 13.4616M3.18311 10.9033C5.97388 10.1308 8.54826 10.0765 10.6105 11.7268" stroke="#F7F7F7" stroke-linecap="round" stroke-linejoin="round"/>
<path d="M1.06104 6.01241L1.13149 22.3695C5.28018 20.7067 9.00069 20.917 12.2135 23.349C15.6203 21.4821 19.1842 20.4861 23.2727 22.3918L23.3431 6.19012C19.8942 4.90784 16.1388 4.26612 12.2141 6.92441C9.10307 4.72555 4.99654 4.65298 1.06104 6.01241Z" stroke="#F7F7F7" stroke-width="1.5" stroke-linecap="round" stroke-linejoin="round"/>
<path d="M3.18311 9.28415C6.00774 8.51101 8.61335 8.45672 10.7006 10.107M13.4532 14.2202C13.4074 15.7802 14.4215 16.8693 15.9749 17.7184L19.2364 17.343C21.2843 15.9316 21.2659 14.5767 21.2022 13.223L13.4532 14.2202ZM14.309 9.84072L13.43 12.1664C14.4626 12.2247 15.5523 11.7887 16.4718 12.8224L17.0968 11.2316C15.6493 11.3482 15.0304 10.4339 14.309 9.84072Z" stroke="#F7F7F7" stroke-linecap="round" stroke-linejoin="round"/>
</g>
<defs>
<clipPath id="clip0_2303_1561">
<rect width="24" height="24" fill="white" transform="translate(0 0.5)"/>
</clipPath>
</defs>
</svg>
