<svg width="24" height="25" viewBox="0 0 24 25" fill="none" xmlns="http://www.w3.org/2000/svg">
<g clip-path="url(#clip0_2308_544)">
<path d="M4.24414 17.3721C7.03492 16.3785 9.6093 16.3095 11.6715 18.4304M4.24414 15.1851C7.03492 14.1915 9.6093 14.1218 11.6715 16.2427M4.24414 13.0562C7.03492 12.0626 9.6093 11.9928 11.6715 14.1137M4.24414 10.7693C7.03492 9.7757 9.6093 9.70593 11.6715 11.8268" stroke="#695E5E" stroke-width="1.5" stroke-linecap="round" stroke-linejoin="round"/>
<path d="M1.06104 6.01241L1.13149 22.3695C5.28018 20.7067 9.00069 20.917 12.2135 23.349C15.6203 21.4821 19.1842 20.4861 23.2727 22.3918L23.3431 6.19012C19.8942 4.90784 16.1388 4.26612 12.2141 6.92441C9.10307 4.72555 4.99654 4.65298 1.06104 6.01241Z" stroke="#695E5E" stroke-width="2" stroke-linecap="round" stroke-linejoin="round"/>
<path d="M13.8155 15.3296C13.7718 16.8504 14.7386 17.9122 16.2195 18.74L19.3287 18.374C21.2811 16.998 21.2635 15.6772 21.2028 14.3574L13.8155 15.3296ZM14.6314 11.06L13.7933 13.3274C14.7777 13.3842 15.8166 12.9591 16.6932 13.9669L17.289 12.416C15.9091 12.5296 15.319 11.6383 14.6314 11.06Z" stroke="#695E5E" stroke-linecap="round" stroke-linejoin="round"/>
</g>
<defs>
<clipPath id="clip0_2308_544">
<rect width="24" height="24" fill="white" transform="translate(0 0.5)"/>
</clipPath>
</defs>
</svg>
