<svg width="19" height="21" viewBox="0 0 19 21" fill="none" xmlns="http://www.w3.org/2000/svg">
<g id="Property 1=Recipe">
<g id="Vector">
<path d="M8.69408 13.0682L5.65442 8.657L15.5515 8.69723L12.7453 13.0847L8.69408 13.0682Z" stroke="black" stroke-linecap="round" stroke-linejoin="round"/>
<path d="M5.95748 5.94959L7.54001 3.04098C8.43073 3.94713 9.12897 5.25822 11.1294 5.35637L10.0145 7.34184C8.92434 5.8213 7.36151 6.2058 5.95748 5.94959Z" stroke="black" stroke-linecap="round" stroke-linejoin="round"/>
</g>
<path id="Vector_2" d="M2.93212 11.5556V3.11119C2.93212 2.55129 3.12983 2.01432 3.48175 1.61841C3.83367 1.2225 4.31097 1.00008 4.80866 1.00008H16.0679C16.5656 1.00008 17.0429 1.2225 17.3948 1.61841C17.7468 2.01432 17.9445 2.55129 17.9445 3.11119V16.8334C17.9445 17.889 17.3815 20.0001 15.1297 20.0001M15.1297 20.0001H3.87039C2.93212 20.0001 1.05558 19.3667 1.05558 16.8334V15.7251H12.3148V16.8334C12.3148 19.3667 14.1914 20.0001 15.1297 20.0001Z" stroke="black" stroke-width="2" stroke-linecap="round" stroke-linejoin="round"/>
</g>
</svg>
