<svg width="21" height="24" viewBox="0 0 21 24" fill="none" xmlns="http://www.w3.org/2000/svg">
<mask id="path-1-inside-1_3058_2369" fill="white">
<path d="M3.96478 0C2.09087 0.000365521 0.566406 1.52508 0.566406 3.39886V20.6013C0.566406 22.4752 2.09087 23.9999 3.9649 24.0001H20.0064C20.427 24.0001 20.7679 23.6592 20.7679 23.2386V20.6013V17.9639V6.03622V0.761502C20.7679 0.340909 20.427 0 20.0064 0H3.96478ZM3.9649 1.523H19.2449V6.03622V17.2023H3.96478C3.27187 17.2024 2.62721 17.4114 2.08941 17.7687V3.39886C2.08941 2.36468 2.93084 1.52313 3.9649 1.523ZM19.2449 22.477H3.96502C2.93084 22.4769 2.08941 21.6353 2.08941 20.6011C2.08941 19.567 2.93072 18.7254 3.9649 18.7253H19.2449V19.8396H7.25459C6.834 19.8396 6.49309 20.1805 6.49309 20.6011C6.49309 21.0217 6.834 21.3626 7.25459 21.3626H19.2449V22.477Z"/>
</mask>
<path d="M3.96478 0C2.09087 0.000365521 0.566406 1.52508 0.566406 3.39886V20.6013C0.566406 22.4752 2.09087 23.9999 3.9649 24.0001H20.0064C20.427 24.0001 20.7679 23.6592 20.7679 23.2386V20.6013V17.9639V6.03622V0.761502C20.7679 0.340909 20.427 0 20.0064 0H3.96478ZM3.9649 1.523H19.2449V6.03622V17.2023H3.96478C3.27187 17.2024 2.62721 17.4114 2.08941 17.7687V3.39886C2.08941 2.36468 2.93084 1.52313 3.9649 1.523ZM19.2449 22.477H3.96502C2.93084 22.4769 2.08941 21.6353 2.08941 20.6011C2.08941 19.567 2.93072 18.7254 3.9649 18.7253H19.2449V19.8396H7.25459C6.834 19.8396 6.49309 20.1805 6.49309 20.6011C6.49309 21.0217 6.834 21.3626 7.25459 21.3626H19.2449V22.477Z" fill="#695E5E"/>
<path d="M3.96478 0L3.96478 -4.06135L3.96399 -4.06135L3.96478 0ZM3.9649 24.0001L3.96437 28.0615H3.9649V24.0001ZM3.9649 1.523L3.9649 -2.53834L3.96442 -2.53834L3.9649 1.523ZM19.2449 1.523H23.3063V-2.53834H19.2449V1.523ZM19.2449 17.2023V21.2636H23.3063V17.2023H19.2449ZM3.96478 17.2023L3.96478 13.1409L3.96406 13.1409L3.96478 17.2023ZM2.08941 17.7687H-1.97194V25.3436L4.33711 21.1514L2.08941 17.7687ZM2.08941 3.39886H-1.97194H2.08941ZM19.2449 22.477V26.5383H23.3063V22.477H19.2449ZM3.96502 22.477L3.96454 26.5383H3.96502V22.477ZM3.9649 18.7253L3.9649 14.6639L3.96442 14.6639L3.9649 18.7253ZM19.2449 18.7253H23.3063V14.6639H19.2449V18.7253ZM19.2449 19.8396V23.901H23.3063V19.8396H19.2449ZM19.2449 21.3626H23.3063V17.3013H19.2449V21.3626ZM3.96399 -4.06135C-0.152452 -4.06054 -3.49494 -0.717812 -3.49494 3.39886H4.62775C4.62775 3.76796 4.3342 4.06127 3.96557 4.06135L3.96399 -4.06135ZM-3.49494 3.39886V20.6013H4.62775V3.39886H-3.49494ZM-3.49494 20.6013C-3.49494 24.718 -0.152444 28.0609 3.96437 28.0615L3.96543 19.9388C4.33419 19.9388 4.62775 20.2323 4.62775 20.6013H-3.49494ZM3.9649 28.0615H20.0064V19.9388H3.9649V28.0615ZM20.0064 28.0615C22.67 28.0615 24.8293 25.9022 24.8293 23.2386H16.7066C16.7066 21.4162 18.184 19.9388 20.0064 19.9388V28.0615ZM24.8293 23.2386V20.6013H16.7066V23.2386H24.8293ZM24.8293 20.6013V17.9639H16.7066V20.6013H24.8293ZM24.8293 17.9639V6.03622H16.7066V17.9639H24.8293ZM24.8293 6.03622V0.761502H16.7066V6.03622H24.8293ZM24.8293 0.761502C24.8293 -1.90211 22.67 -4.06135 20.0064 -4.06135V4.06135C18.184 4.06135 16.7066 2.58393 16.7066 0.761502H24.8293ZM20.0064 -4.06135H3.96478V4.06135H20.0064V-4.06135ZM3.9649 5.58435H19.2449V-2.53834H3.9649V5.58435ZM15.1836 1.523V6.03622H23.3063V1.523H15.1836ZM15.1836 6.03622V17.2023H23.3063V6.03622H15.1836ZM19.2449 13.1409H3.96478V21.2636H19.2449V13.1409ZM3.96406 13.1409C2.4427 13.1412 1.02083 13.6026 -0.158287 14.3861L4.33711 21.1514C4.2336 21.2202 4.10104 21.2636 3.96549 21.2636L3.96406 13.1409ZM6.15076 17.7687V3.39886H-1.97194V17.7687H6.15076ZM6.15076 3.39886C6.15076 4.60728 5.17439 5.58421 3.96538 5.58435L3.96442 -2.53834C0.687293 -2.53796 -1.97194 0.122082 -1.97194 3.39886L6.15076 3.39886ZM19.2449 18.4156H3.96502V26.5383H19.2449V18.4156ZM3.9655 18.4156C5.17422 18.4158 6.15076 19.3926 6.15076 20.6011H-1.97194C-1.97194 23.8781 0.687461 26.538 3.96454 26.5383L3.9655 18.4156ZM6.15076 20.6011C6.15076 21.8094 5.17444 22.7865 3.96538 22.7866L3.96442 14.6639C0.687001 14.6643 -1.97194 17.3245 -1.97194 20.6011H6.15076ZM3.9649 22.7866H19.2449V14.6639H3.9649V22.7866ZM15.1836 18.7253V19.8396H23.3063V18.7253H15.1836ZM19.2449 15.7783H7.25459V23.901H19.2449V15.7783ZM7.25459 15.7783C4.59098 15.7783 2.43174 17.9375 2.43174 20.6011H10.5544C10.5544 22.4236 9.07702 23.901 7.25459 23.901V15.7783ZM2.43174 20.6011C2.43174 23.2648 4.59098 25.424 7.25459 25.424V17.3013C9.07702 17.3013 10.5544 18.7787 10.5544 20.6011H2.43174ZM7.25459 25.424H19.2449V17.3013H7.25459V25.424ZM15.1836 21.3626V22.477H23.3063V21.3626H15.1836Z" fill="#695E5E" mask="url(#path-1-inside-1_3058_2369)"/>
<path d="M7.62154 10.6855V13.5687C7.62154 13.9893 7.96245 14.3302 8.38304 14.3302H12.9504C13.3709 14.3302 13.7119 13.9893 13.7119 13.5687V10.6856C14.718 10.2817 15.4154 9.29506 15.4154 8.1673C15.4154 6.71314 14.2656 5.52263 12.8275 5.45708C12.3206 4.78623 11.5307 4.38599 10.6668 4.38599C9.80261 4.38599 9.01284 4.78623 8.50598 5.45708C7.06778 5.52263 5.91797 6.71326 5.91797 8.1673C5.91797 9.29518 6.61551 10.2817 7.62154 10.6855ZM8.63111 6.97729C8.68874 6.97729 8.74735 6.98155 8.80571 6.99008C9.13297 7.03845 9.45305 6.86995 9.59913 6.57363C9.80151 6.16376 10.2108 5.90899 10.6671 5.90899C11.1232 5.90899 11.5325 6.16376 11.7351 6.57387C11.8813 6.87019 12.2029 7.03821 12.5287 6.99008C12.5867 6.98155 12.6451 6.97729 12.7028 6.97729C13.359 6.97729 13.8929 7.51119 13.8929 8.16742C13.8929 8.76505 13.4466 9.2724 12.8548 9.34745C12.4744 9.3957 12.1892 9.71943 12.1892 10.1029V12.8072H9.14455V10.1532C9.14455 10.1523 9.14467 10.1514 9.14467 10.1506C9.16989 9.7494 8.87881 9.39765 8.48003 9.34733C7.88764 9.27264 7.44097 8.76542 7.44097 8.1673C7.44097 7.51107 7.97488 6.97729 8.63111 6.97729Z" fill="#695E5E"/>
</svg>
