<svg width="24" height="24" viewBox="0 0 24 24" fill="none" xmlns="http://www.w3.org/2000/svg">
<g id="Property 1=search">
<path id="Vector" d="M20.0001 20L15.9501 15.95M15.9501 15.95C16.6002 15.2999 17.1158 14.5282 17.4676 13.6789C17.8194 12.8296 18.0005 11.9193 18.0005 11C18.0005 10.0807 17.8194 9.17039 17.4676 8.32107C17.1158 7.47175 16.6002 6.70003 15.9501 6.04999C15.3001 5.39995 14.5284 4.8843 13.679 4.5325C12.8297 4.1807 11.9194 3.99963 11.0001 3.99963C10.0808 3.99963 9.17051 4.1807 8.32119 4.5325C7.47187 4.8843 6.70016 5.39995 6.05011 6.04999C4.73729 7.36281 3.99976 9.14338 3.99976 11C3.99976 12.8566 4.73729 14.6372 6.05011 15.95C7.36293 17.2628 9.1435 18.0003 11.0001 18.0003C12.8567 18.0003 14.6373 17.2628 15.9501 15.95Z" stroke="black" stroke-width="2" stroke-linecap="round" stroke-linejoin="round"/>
</g>
</svg>
