<svg width="25" height="24" viewBox="0 0 25 24" fill="none" xmlns="http://www.w3.org/2000/svg">
<g id="Property 1=Star outline">
<path id="Outline star" d="M20.6249 12.5641L20.6293 12.5633L18.4041 14.5536L17.9649 14.9465L18.0958 15.521L19.5656 21.9743L19.5664 21.9778C19.6045 22.1424 19.5945 22.3152 19.5384 22.4728C19.4824 22.6302 19.3847 22.7612 19.2631 22.8529C19.142 22.9442 19.0016 22.9935 18.8599 22.9994C18.7187 23.0053 18.5764 22.9681 18.4504 22.8885C18.45 22.8883 18.4496 22.888 18.4493 22.8878L13.0381 19.4356L12.5004 19.0926L11.9626 19.4355L6.55009 22.8865C6.54948 22.8868 6.54887 22.8872 6.54827 22.8876C6.42244 22.9664 6.28064 23.0031 6.13996 22.997C5.99854 22.9909 5.85842 22.9415 5.7375 22.8502C5.61614 22.7586 5.51861 22.6278 5.46267 22.4708C5.40666 22.3134 5.39651 22.1409 5.43436 21.9765L5.43468 21.9751L6.90982 15.5218L7.04126 14.9468L6.60165 14.5536L1.77801 10.239C1.77794 10.239 1.77786 10.2389 1.77779 10.2388C1.66244 10.1354 1.57462 9.99487 1.53071 9.83216C1.48672 9.66916 1.4901 9.49575 1.54016 9.33512C1.59015 9.1747 1.68299 9.0385 1.80162 8.94046L1.16458 8.16963L1.80162 8.94046C1.91902 8.84344 2.057 8.78734 2.19783 8.7739L8.51833 8.24531L9.13483 8.19375L9.36391 7.61908L11.8039 1.4981L11.8048 1.49591C11.8659 1.34155 11.9676 1.2153 12.0915 1.12917L11.5255 0.31483L12.0915 1.12917C12.2149 1.04338 12.3562 1 12.4975 1C12.6389 1 12.7801 1.04338 12.9036 1.12917C13.0275 1.2153 13.1292 1.34155 13.1903 1.49591L13.1911 1.49796L15.63 7.61894L15.8591 8.19374L16.4757 8.24531L22.7968 8.77394C22.7973 8.77398 22.7978 8.77403 22.7984 8.77408C22.9399 8.78681 23.0788 8.84263 23.1969 8.93978L23.7889 8.21983L23.1969 8.93979C23.3159 9.03766 23.4092 9.17387 23.4595 9.33447L24.4138 9.03558L23.4595 9.33447C23.5098 9.49528 23.5134 9.66899 23.4694 9.83229C23.4255 9.99541 23.3374 10.1363 23.2217 10.2398L20.6249 12.5641Z" stroke="#994D00" stroke-width="2"/>
</g>
</svg>
