<svg width="25" height="24" viewBox="0 0 25 24" fill="none" xmlns="http://www.w3.org/2000/svg">
<g id="Property 1=Star filled">
<path id="Filled star" d="M23.8951 10.9838L19.0708 15.299L20.5406 21.7522C20.6217 22.1025 20.6008 22.4699 20.4806 22.8079C20.3604 23.146 20.1462 23.4395 19.8651 23.6514C19.5841 23.8633 19.2487 23.9841 18.9015 23.9985C18.5542 24.013 18.2106 23.9204 17.9141 23.7325L12.5002 20.2787L7.08314 23.7325C6.78664 23.9193 6.44345 24.011 6.09678 23.996C5.75012 23.9811 5.41548 23.8601 5.13501 23.6484C4.85453 23.4366 4.64076 23.1436 4.52062 22.8062C4.40047 22.4688 4.37932 22.1021 4.45983 21.7522L5.93497 15.299L1.11073 10.9838C0.848402 10.7488 0.658677 10.4389 0.565256 10.0927C0.471835 9.74661 0.478857 9.37961 0.585445 9.03759C0.692034 8.69557 0.893465 8.39368 1.16458 8.16963C1.4357 7.94557 1.76449 7.80927 2.10989 7.77776L8.43499 7.24879L10.875 1.1278C11.0071 0.794214 11.2318 0.50887 11.5208 0.308049C11.8097 0.107227 12.1497 0 12.4975 0C12.8454 0 13.1854 0.107227 13.4743 0.308049C13.7632 0.50887 13.988 0.794214 14.1201 1.1278L16.559 7.24879L22.8841 7.77776C23.2302 7.8081 23.5599 7.94364 23.832 8.16738C24.1041 8.39113 24.3065 8.69314 24.4138 9.03558C24.521 9.37801 24.5284 9.74564 24.435 10.0924C24.3416 10.4392 24.1515 10.7497 23.8886 10.9849L23.8951 10.9838Z" fill="#FFA000"/>
</g>
</svg>
