<svg width="25" height="26" viewBox="0 0 25 26" fill="none" xmlns="http://www.w3.org/2000/svg">
<path d="M1.5 6.33333H23.5M9.75 11.6667V19.6667M15.25 11.6667V19.6667M2.875 6.33333L4.25 22.3333C4.25 23.0406 4.53973 23.7189 5.05546 24.219C5.57118 24.719 6.27065 25 7 25H18C18.7293 25 19.4288 24.719 19.9445 24.219C20.4603 23.7189 20.75 23.0406 20.75 22.3333L22.125 6.33333M8.375 6.33333V2.33333C8.375 1.97971 8.51987 1.64057 8.77773 1.39052C9.03559 1.14048 9.38533 1 9.75 1H15.25C15.6147 1 15.9644 1.14048 16.2223 1.39052C16.4801 1.64057 16.625 1.97971 16.625 2.33333V6.33333" stroke="white" stroke-width="2" stroke-linecap="round" stroke-linejoin="round"/>
</svg>
