<svg width="22" height="22" viewBox="0 0 22 22" fill="none" xmlns="http://www.w3.org/2000/svg">
<path d="M9.9 15.4C9.9 14.7925 10.3925 14.3 11 14.3V14.3C11.6075 14.3 12.1 14.7925 12.1 15.4V15.4C12.1 16.0075 11.6075 16.5 11 16.5V16.5C10.3925 16.5 9.9 16.0075 9.9 15.4V15.4ZM9.9 6.6C9.9 5.99249 10.3925 5.5 11 5.5V5.5C11.6075 5.5 12.1 5.99249 12.1 6.6V11C12.1 11.6075 11.6075 12.1 11 12.1V12.1C10.3925 12.1 9.9 11.6075 9.9 11V6.6ZM11 0C4.917 0 0 4.95 0 11C0 13.9174 1.15893 16.7153 3.22183 18.7782C4.24327 19.7996 5.4559 20.6099 6.79048 21.1627C8.12506 21.7155 9.55546 22 11 22C13.9174 22 16.7153 20.8411 18.7782 18.7782C20.8411 16.7153 22 13.9174 22 11C22 9.55546 21.7155 8.12506 21.1627 6.79048C20.6099 5.4559 19.7996 4.24327 18.7782 3.22183C17.7567 2.20038 16.5441 1.39013 15.2095 0.837325C13.8749 0.284523 12.4445 0 11 0ZM11 19.8C8.66609 19.8 6.42778 18.8729 4.77746 17.2225C3.12714 15.5722 2.2 13.3339 2.2 11C2.2 8.66609 3.12714 6.42778 4.77746 4.77746C6.42778 3.12714 8.66609 2.2 11 2.2C13.3339 2.2 15.5722 3.12714 17.2225 4.77746C18.8729 6.42778 19.8 8.66609 19.8 11C19.8 13.3339 18.8729 15.5722 17.2225 17.2225C15.5722 18.8729 13.3339 19.8 11 19.8Z" fill="black"/>
</svg>
